<?xml version="1.0" encoding="UTF-8" standalone="no"?>
<!-- Created with Inkscape (http://www.inkscape.org/) -->

<svg
   width="60"
   height="60"
   viewBox="0 0 512 512"
   version="1.1"
   id="svg1"
   inkscape:version="1.3.2 (091e20e, 2023-11-25, custom)"
   sodipodi:docname="logo-nebit.svg"
   xmlns:inkscape="http://www.inkscape.org/namespaces/inkscape"
   xmlns:sodipodi="http://sodipodi.sourceforge.net/DTD/sodipodi-0.dtd"
   xmlns="http://www.w3.org/2000/svg"
   xmlns:svg="http://www.w3.org/2000/svg">
  <sodipodi:namedview
     id="namedview1"
     pagecolor="#ffffff"
     bordercolor="#000000"
     borderopacity="0.25"
     inkscape:showpageshadow="2"
     inkscape:pageopacity="0.0"
     inkscape:pagecheckerboard="0"
     inkscape:deskcolor="#d1d1d1"
     inkscape:document-units="px"
     inkscape:zoom="0.79394531"
     inkscape:cx="284.0246"
     inkscape:cy="329.36777"
     inkscape:window-width="1920"
     inkscape:window-height="1009"
     inkscape:window-x="1072"
     inkscape:window-y="-8"
     inkscape:window-maximized="1"
     inkscape:current-layer="layer1" />
  <defs
     id="defs1">
    <clipPath
       clipPathUnits="userSpaceOnUse"
       id="clipPath4">
      <path
         d="M 0,192 H 1920 V 0 H 0 Z"
         transform="matrix(1.3333333,0,0,-1.3333333,0,256)"
         id="path4" />
    </clipPath>
    <clipPath
       clipPathUnits="userSpaceOnUse"
       id="clipPath2">
      <path
         d="M 936.822,109.194 H 984.17 V 64.875 h -47.348 z"
         transform="translate(-984.17005,-70.010004)"
         id="path2" />
    </clipPath>
    <clipPath
       clipPathUnits="userSpaceOnUse"
       id="clipPath7">
      <path
         d="M 0,192 H 1920 V 0 H 0 Z"
         transform="matrix(1.3333333,0,0,-1.3333333,0,256)"
         id="path7" />
    </clipPath>
    <clipPath
       clipPathUnits="userSpaceOnUse"
       id="clipPath5">
      <path
         d="m 935.679,79.7323 h 16.426 V 63.3668 h -16.426 z"
         transform="translate(-949.62002,-77.109999)"
         id="path5" />
    </clipPath>
    <clipPath
       clipPathUnits="userSpaceOnUse"
       id="clipPath12">
      <path
         d="M 0,192 H 1920 V 0 H 0 Z"
         transform="matrix(1.3333333,0,0,-1.3333333,0,256)"
         id="path12" />
    </clipPath>
    <clipPath
       clipPathUnits="userSpaceOnUse"
       id="clipPath8">
      <path
         d="M 940.054,57.5253 H 981.27 V 44.9 h -41.216 z"
         transform="translate(-981.27002,-54.720001)"
         id="path8" />
    </clipPath>
    <clipPath
       clipPathUnits="userSpaceOnUse"
       id="clipPath9">
      <path
         d="M 940.054,57.5253 H 981.27 V 44.9 h -41.216 z"
         transform="translate(-978.81002,-55.179999)"
         id="path9" />
    </clipPath>
  </defs>
  <g
     inkscape:label="Capa 1"
     inkscape:groupmode="layer"
     id="layer1">
    <g
       id="g3"
       clip-path="url(#clipPath4)"
       style="display:inline;fill:#0848af;fill-opacity:1"
       transform="matrix(5.3784156,0,0,5.3784156,-6629.4106,-566.69025)">
      <path
         d="m 0,0 c 0.02,-3.22 -1.13,-4.95 -4.59,-5.12 -3.71,-0.18 -5.4,1.25 -5.87,5.03 -1.71,13.45 -9.87,21.73 -22,26.65 -0.77,0.31 -1.61,0.48 -2.43,0.59 -0.45,0.06 -0.95,-0.14 -1.51,-0.24 -1.07,-2.94 -0.43,-5.96 -0.5,-8.91 -0.06,-2.34 -0.33,-4.38 -3.54,-4.97 -6.7,0.02 -6.83,0.2 -6.77,6.48 0.04,4.67 0.03,9.34 -0.13,14 -0.13,4.06 1.27,5.61 5.66,5.14 10.48,-1.13 19.54,-5.16 27.5,-11.93 0.98,-0.83 1.96,-1.66 4.12,-3.5 0,4.58 0.07,7.99 -0.01,11.39 -0.09,3.52 1.73,4.65 4.99,4.57 C -1.88,39.11 0,37.95 -0.01,34.5 -0.03,23 -0.06,11.5 0,0"
         style="fill:#0848af;fill-opacity:1;fill-rule:nonzero;stroke:none"
         transform="matrix(1.3333333,0,0,-1.3333333,1312.2267,162.65333)"
         clip-path="url(#clipPath2)"
         id="path3" />
    </g>
    <g
       id="g6"
       clip-path="url(#clipPath7)"
       style="display:inline;fill:#0848af;fill-opacity:1"
       transform="matrix(5.3784156,0,0,5.3784156,-6629.4106,-566.69025)">
      <path
         d="m 0,0 c 2.9,-3.01 3.39,-6.38 0.79,-10.3 -2.96,-3.54 -6.38,-4.25 -10.13,-2.59 -3.18,1.4 -4.75,4.11 -4.59,7.63 0.16,3.52 2.07,5.9 5.27,7.23 C -5.34,3.34 -2.4,2.49 0,0"
         style="fill:#0848af;fill-opacity:1;fill-rule:nonzero;stroke:none"
         transform="matrix(1.3333333,0,0,-1.3333333,1266.16,153.18667)"
         clip-path="url(#clipPath5)"
         id="path6" />
    </g>
    <g
       id="g11"
       clip-path="url(#clipPath12)"
       style="display:inline;fill:#0848af;fill-opacity:1"
       transform="matrix(5.3784156,0,0,5.3784156,-6629.4106,-566.69025)">
      <path
         d="m 0,0 c -0.02,-0.16 -0.02,-0.31 -0.05,-0.46 -0.06,-0.31 -0.37,-0.52 -0.67,-0.46 -0.32,0.06 -0.53,0.34 -0.49,0.66 0.13,0.92 -0.46,1.68 -1.27,1.85 -0.19,0.04 -0.39,0.05 -0.59,0.02 -0.32,-0.04 -0.61,0.16 -0.66,0.46 -0.06,0.31 0.11,0.61 0.41,0.69 0.07,0.02 0.13,0.02 0.2,0.03 1.46,0.15 2.78,-0.82 3.06,-2.27 C -0.03,0.35 -0.02,0.17 0,0"
         style="fill:#0848af;fill-opacity:1;fill-rule:nonzero;stroke:none"
         transform="matrix(1.3333333,0,0,-1.3333333,1308.36,183.04)"
         clip-path="url(#clipPath8)"
         id="path10" />
      <path
         d="M 0,0 C 0.17,-0.17 0.22,-0.44 0.12,-0.67 0.1,-0.72 0.06,-0.77 0.03,-0.81 -1,-2.4 -2.26,-3.78 -3.72,-4.98 c -1.91,-1.58 -4.05,-2.77 -6.37,-3.65 -1.49,-0.56 -3.03,-0.98 -4.6,-1.25 -0.83,-0.14 -1.68,-0.25 -2.52,-0.32 -0.69,-0.05 -1.39,-0.07 -1.98,-0.08 -0.94,0 -1.77,0.04 -2.6,0.12 -3.31,0.32 -6.46,1.2 -9.41,2.75 -1.84,0.97 -3.52,2.17 -5,3.63 -0.91,0.91 -1.73,1.91 -2.43,2.99 -0.11,0.17 -0.16,0.34 -0.1,0.53 0.12,0.43 0.67,0.58 0.98,0.25 0.25,-0.26 0.53,-0.49 0.82,-0.72 0.94,-0.74 1.98,-1.34 3.06,-1.86 1.47,-0.69 2.99,-1.2 4.55,-1.61 1.13,-0.29 2.27,-0.52 3.42,-0.7 0.82,-0.12 1.64,-0.22 2.47,-0.3 1.59,-0.15 3.19,-0.21 4.79,-0.19 0.84,0.02 1.67,0.05 2.51,0.12 0.77,0.07 1.54,0.13 2.31,0.23 2.09,0.26 4.15,0.68 6.16,1.32 1.46,0.47 2.89,1.05 4.23,1.81 0.9,0.51 1.74,1.1 2.51,1.8 0.08,0.07 0.18,0.14 0.28,0.19 C -0.41,0.2 -0.17,0.17 0,0"
         style="fill:#0848af;fill-opacity:1;fill-rule:nonzero;stroke:none"
         transform="matrix(1.3333333,0,0,-1.3333333,1305.08,182.42667)"
         clip-path="url(#clipPath9)"
         id="path11" />
    </g>
  </g>
</svg>
